<?xml version="1.0" standalone="no"?>
<!DOCTYPE svg PUBLIC "-//W3C//DTD SVG 1.1//EN"
"http://www.w3.org/Graphics/SVG/1.1/DTD/svg11.dtd">

<svg width="482" height="338" view_box="0 0 482 338"
xmlns="http://www.w3.org/2000/svg"
xmlns:link="http://www.w3.org/1999/xlink">\n\n<desc>Généré par Mocodo 2.3.7 le Thu, 26 May 2022 05:57:50</desc>

<rect id="frame" x="0" y="0" width="482" height="338" fill="#f5f5f5" stroke="none" stroke-width="0"/>

<!-- Association catégorise -->
<line x1="186" y1="43" x2="186" y2="127" stroke="#bf812d" stroke-width="2"/>
<text x="191.0" y="94" fill="#01665e" font-family="Verdana" font-size="12">0,N</text>
<line x1="186" y1="253" x2="186" y2="127" stroke="#bf812d" stroke-width="2"/>
<text x="191.0" y="169" fill="#01665e" font-family="Verdana" font-size="12">1,1</text>
<g id="association-catégorise">
	<path d="M 211 102 a 14 14 90 0 1 14 14 V 127 h -78 V 116 a 14 14 90 0 1 14 -14" fill="#dfc27d" stroke="#dfc27d" stroke-width="0"/>
	<path d="M 225 127.0 v 11 a 14 14 90 0 1 -14 14 H 161 a 14 14 90 0 1 -14 -14 V 127.0 H 78" fill="#f6e8c3" stroke="#f6e8c3" stroke-width="0"/>
	<rect x="147" y="102" width="78" height="50" fill="none" rx="14" stroke="#bf812d" stroke-width="2"/>
	<line x1="147" y1="127" x2="225" y2="127" stroke="#bf812d" stroke-width="1"/>
	<text x="154" y="119.7" fill="#000000" font-family="Verdana" font-size="12">catégorise</text>
</g>

<!-- Association date du mois -->
<line x1="426" y1="43" x2="426" y2="127" stroke="#bf812d" stroke-width="2"/>
<text x="431.0" y="94" fill="#01665e" font-family="Verdana" font-size="12">0,N</text>
<line x1="186" y1="253" x2="426" y2="127" stroke="#bf812d" stroke-width="2"/>
<text x="242" y="239.127808071" fill="#01665e" font-family="Verdana" font-size="12">1,1</text>
<g id="association-date du mois">
	<path d="M 459 102 a 14 14 90 0 1 14 14 V 127 h -94 V 116 a 14 14 90 0 1 14 -14" fill="#dfc27d" stroke="#dfc27d" stroke-width="0"/>
	<path d="M 473 127.0 v 11 a 14 14 90 0 1 -14 14 H 393 a 14 14 90 0 1 -14 -14 V 127.0 H 94" fill="#f6e8c3" stroke="#f6e8c3" stroke-width="0"/>
	<rect x="379" y="102" width="94" height="50" fill="none" rx="14" stroke="#bf812d" stroke-width="2"/>
	<line x1="379" y1="127" x2="473" y2="127" stroke="#bf812d" stroke-width="1"/>
	<text x="386" y="119.7" fill="#000000" font-family="Verdana" font-size="12">date du mois</text>
</g>

<!-- Association est l'auteur -->
<line x1="61" y1="43" x2="61" y2="127" stroke="#bf812d" stroke-width="2"/>
<text x="66.0" y="94" fill="#01665e" font-family="Verdana" font-size="12">0,N</text>
<line x1="186" y1="253" x2="61" y2="127" stroke="#bf812d" stroke-width="2"/>
<text x="109" y="211.560839939" fill="#01665e" font-family="Verdana" font-size="12">1,1</text>
<g id="association-est l'auteur">
	<path d="M 89 102 a 14 14 90 0 1 14 14 V 127 h -84 V 116 a 14 14 90 0 1 14 -14" fill="#dfc27d" stroke="#dfc27d" stroke-width="0"/>
	<path d="M 103 127.0 v 11 a 14 14 90 0 1 -14 14 H 33 a 14 14 90 0 1 -14 -14 V 127.0 H 84" fill="#f6e8c3" stroke="#f6e8c3" stroke-width="0"/>
	<rect x="19" y="102" width="84" height="50" fill="none" rx="14" stroke="#bf812d" stroke-width="2"/>
	<line x1="19" y1="127" x2="103" y2="127" stroke="#bf812d" stroke-width="1"/>
	<text x="26" y="119.7" fill="#000000" font-family="Verdana" font-size="12">est l'auteur</text>
</g>

<!-- Association date du jour -->
<line x1="302" y1="43" x2="302" y2="127" stroke="#bf812d" stroke-width="2"/>
<text x="307.0" y="94" fill="#01665e" font-family="Verdana" font-size="12">0,N</text>
<line x1="186" y1="253" x2="302" y2="127" stroke="#bf812d" stroke-width="2"/>
<text x="242" y="207.945315112" fill="#01665e" font-family="Verdana" font-size="12">1,1</text>
<g id="association-date du jour">
	<path d="M 333 102 a 14 14 90 0 1 14 14 V 127 h -90 V 116 a 14 14 90 0 1 14 -14" fill="#dfc27d" stroke="#dfc27d" stroke-width="0"/>
	<path d="M 347 127.0 v 11 a 14 14 90 0 1 -14 14 H 271 a 14 14 90 0 1 -14 -14 V 127.0 H 90" fill="#f6e8c3" stroke="#f6e8c3" stroke-width="0"/>
	<rect x="257" y="102" width="90" height="50" fill="none" rx="14" stroke="#bf812d" stroke-width="2"/>
	<line x1="257" y1="127" x2="347" y2="127" stroke="#bf812d" stroke-width="1"/>
	<text x="264" y="119.7" fill="#000000" font-family="Verdana" font-size="12">date du jour</text>
</g>

<!-- Entity MOIS -->
<g id="entity-MOIS">
	<g id="frame-MOIS">
		<rect x="381" y="9" width="90" height="25" fill="#80cdc1" stroke="#80cdc1" stroke-width="0"/>
		<rect x="381" y="34.0" width="90" height="43" fill="#c7eae5" stroke="#c7eae5" stroke-width="0"/>
		<rect x="381" y="9" width="90" height="68" fill="none" stroke="#35978f" stroke-width="2"/>
		<line x1="381" y1="34" x2="471" y2="34" stroke="#35978f" stroke-width="1"/>
	</g>
	<text x="409" y="26.7" fill="#000000" font-family="Verdana" font-size="12">MOIS</text>
	<text x="386" y="51.8" fill="#000000" font-family="Verdana" font-size="12">numero mois</text>
	<line x1="386" y1="54" x2="466" y2="54" stroke="#000000" stroke-width="1"/>
	<text x="386" y="68.8" fill="#000000" font-family="Verdana" font-size="12">label</text>
</g>

<!-- Entity JOUR -->
<g id="entity-JOUR">
	<g id="frame-JOUR">
		<rect x="259" y="9" width="86" height="25" fill="#80cdc1" stroke="#80cdc1" stroke-width="0"/>
		<rect x="259" y="34.0" width="86" height="43" fill="#c7eae5" stroke="#c7eae5" stroke-width="0"/>
		<rect x="259" y="9" width="86" height="68" fill="none" stroke="#35978f" stroke-width="2"/>
		<line x1="259" y1="34" x2="345" y2="34" stroke="#35978f" stroke-width="1"/>
	</g>
	<text x="285" y="26.7" fill="#000000" font-family="Verdana" font-size="12">JOUR</text>
	<text x="264" y="51.8" fill="#000000" font-family="Verdana" font-size="12">numero jour</text>
	<line x1="264" y1="54" x2="340" y2="54" stroke="#000000" stroke-width="1"/>
	<text x="264" y="68.8" fill="#000000" font-family="Verdana" font-size="12">nombre</text>
</g>

<!-- Entity TAG -->
<g id="entity-TAG">
	<g id="frame-TAG">
		<rect x="145" y="9" width="82" height="25" fill="#80cdc1" stroke="#80cdc1" stroke-width="0"/>
		<rect x="145" y="34.0" width="82" height="43" fill="#c7eae5" stroke="#c7eae5" stroke-width="0"/>
		<rect x="145" y="9" width="82" height="68" fill="none" stroke="#35978f" stroke-width="2"/>
		<line x1="145" y1="34" x2="227" y2="34" stroke="#35978f" stroke-width="1"/>
	</g>
	<text x="173" y="26.7" fill="#000000" font-family="Verdana" font-size="12">TAG</text>
	<text x="150" y="51.8" fill="#000000" font-family="Verdana" font-size="12">numero tag</text>
	<line x1="150" y1="54" x2="221" y2="54" stroke="#000000" stroke-width="1"/>
	<text x="150" y="68.8" fill="#000000" font-family="Verdana" font-size="12">tag</text>
</g>

<!-- Entity AUTEUR -->
<g id="entity-AUTEUR">
	<g id="frame-AUTEUR">
		<rect x="9" y="9" width="104" height="25" fill="#80cdc1" stroke="#80cdc1" stroke-width="0"/>
		<rect x="9" y="34.0" width="104" height="43" fill="#c7eae5" stroke="#c7eae5" stroke-width="0"/>
		<rect x="9" y="9" width="104" height="68" fill="none" stroke="#35978f" stroke-width="2"/>
		<line x1="9" y1="34" x2="113" y2="34" stroke="#35978f" stroke-width="1"/>
	</g>
	<text x="36" y="26.7" fill="#000000" font-family="Verdana" font-size="12">AUTEUR</text>
	<text x="14" y="51.8" fill="#000000" font-family="Verdana" font-size="12">numero_auteur</text>
	<line x1="14" y1="54" x2="108" y2="54" stroke="#000000" stroke-width="1"/>
	<text x="14" y="68.8" fill="#000000" font-family="Verdana" font-size="12">pseudo</text>
</g>

<!-- Entity ENTREE -->
<g id="entity-ENTREE">
	<g id="frame-ENTREE">
		<rect x="135" y="177" width="102" height="25" fill="#80cdc1" stroke="#80cdc1" stroke-width="0"/>
		<rect x="135" y="202.0" width="102" height="127" fill="#c7eae5" stroke="#c7eae5" stroke-width="0"/>
		<rect x="135" y="177" width="102" height="152" fill="none" stroke="#35978f" stroke-width="2"/>
		<line x1="135" y1="202" x2="237" y2="202" stroke="#35978f" stroke-width="1"/>
	</g>
	<text x="161" y="194.7" fill="#000000" font-family="Verdana" font-size="12">ENTREE</text>
	<text x="140" y="219.7" fill="#000000" font-family="Verdana" font-size="12">numero entrée</text>
	<line x1="140" y1="222" x2="231" y2="222" stroke="#000000" stroke-width="1"/>
	<text x="140" y="236.7" fill="#000000" font-family="Verdana" font-size="12">ligne 1</text>
	<text x="140" y="253.8" fill="#000000" font-family="Verdana" font-size="12">ligne 2</text>
	<text x="140" y="270.8" fill="#000000" font-family="Verdana" font-size="12">ligne 3</text>
	<text x="140" y="287.8" fill="#000000" font-family="Verdana" font-size="12">ligne 4</text>
	<text x="140" y="304.8" fill="#000000" font-family="Verdana" font-size="12">ligne 5</text>
	<text x="140" y="321.8" fill="#000000" font-family="Verdana" font-size="12">ligne 6</text>
</g>
</svg>